<?xml version="1.0" encoding="UTF-8" standalone="no"?>
<svg
   height="16"
   viewBox="0 0 16 16"
   width="16"
   id="svg2"
   version="1.1"
   inkscape:version="1.1.2 (b8e25be833, 2022-02-05)"
   sodipodi:docname="subj-mma.svg"
   style="fill:#000000"
   xmlns:inkscape="http://www.inkscape.org/namespaces/inkscape"
   xmlns:sodipodi="http://sodipodi.sourceforge.net/DTD/sodipodi-0.dtd"
   xmlns="http://www.w3.org/2000/svg"
   xmlns:svg="http://www.w3.org/2000/svg"
   xmlns:rdf="http://www.w3.org/1999/02/22-rdf-syntax-ns#"
   xmlns:cc="http://creativecommons.org/ns#"
   xmlns:dc="http://purl.org/dc/elements/1.1/">
  <metadata
     id="metadata14">
    <rdf:RDF>
      <cc:Work
         rdf:about="">
        <dc:format>image/svg+xml</dc:format>
        <dc:type
           rdf:resource="http://purl.org/dc/dcmitype/StillImage" />
      </cc:Work>
    </rdf:RDF>
  </metadata>
  <defs
     id="defs12" />
  <sodipodi:namedview
     pagecolor="#ffffff"
     bordercolor="#666666"
     borderopacity="1"
     objecttolerance="10"
     gridtolerance="10"
     guidetolerance="10"
     inkscape:pageopacity="0"
     inkscape:pageshadow="2"
     inkscape:window-width="1610"
     inkscape:window-height="783"
     id="namedview10"
     showgrid="false"
     inkscape:zoom="19.666666"
     inkscape:cx="-8.9745766"
     inkscape:cy="6.7118646"
     inkscape:window-x="36"
     inkscape:window-y="99"
     inkscape:window-maximized="0"
     inkscape:current-layer="svg2"
     inkscape:pagecheckerboard="0" />
  <rect
     style="fill:#4f4c9a;fill-opacity:1;fill-rule:evenodd"
     id="rect33"
     width="16"
     height="16"
     x="0"
     y="0"
     ry="2"
     rx="2" />
  <path
     sodipodi:type="spiral"
     style="fill:none;fill-rule:evenodd;stroke:#f2ffff;stroke-width:2.58759;stroke-linecap:butt;stroke-linejoin:miter;stroke-miterlimit:4;stroke-dasharray:none;stroke-opacity:1"
     id="path4368"
     sodipodi:cx="-14.741379"
     sodipodi:cy="4.9440713"
     sodipodi:expansion="1"
     sodipodi:revolution="5"
     sodipodi:radius="27.810923"
     sodipodi:argument="-62.027824"
     sodipodi:t0="0.60000002"
     d="m -3.1640717,16.96102 c -6.5083662,6.971874 -17.7340383,6.983053 -24.5956683,0.525134 -7.496231,-7.055183 -7.490854,-19.1735893 -0.488497,-26.561856 7.601808,-8.020754 20.6132844,-7.9988 28.52804381,-0.4518605 C 8.8252159,-1.3792811 8.7866684,12.525534 0.69503051,20.966669 -7.999601,30.036843 -22.797975,29.981688 -31.765389,21.345256 c -9.595027,-9.24088 -9.523255,-24.9329954 -0.34195,-34.426607 9.787045,-10.119957 26.3730533,-10.031559 36.3927952,-0.305314 C 14.9304,-3.0535306 14.825376,14.426488 4.5541473,24.972304"
     transform="matrix(0.1847768,0.10668093,-0.04036493,0.0699141,9.4587358,12.257474)" />
  <circle
     style="opacity:0.99;fill:#ffffff;fill-opacity:1;stroke:none;stroke-width:1.32687;stroke-miterlimit:4;stroke-dasharray:none;stroke-opacity:1"
     id="path4161"
     cx="7.067657"
     cy="8.7751255"
     r="0.66606575"
     transform="rotate(10.976281)"
     inkscape:transform-center-x="-0.65618141"
     inkscape:transform-center-y="-0.13814361" />
  <circle
     r="0.87328088"
     cy="14.54677"
     cx="0.22510889"
     id="circle4246"
     style="opacity:0.99;fill:#ffffff;fill-opacity:1;stroke:none;stroke-width:1.32687;stroke-miterlimit:4;stroke-dasharray:none;stroke-opacity:1"
     transform="rotate(-34.023719)" />
  <path
     style="opacity:0.99;fill:#ffffff;fill-opacity:1;stroke:none;stroke-width:0.25;stroke-linecap:butt;stroke-linejoin:miter;stroke-miterlimit:4;stroke-dasharray:none;stroke-dashoffset:3.3;stroke-opacity:1"
     d="M 10.98305,0.51000865 A 3.2018558,3.2018558 0 0 1 7.7811948,3.7118642 3.2018558,3.2018558 0 0 1 10.98305,6.9137203 3.2018558,3.2018558 0 0 1 14.184908,3.7118642 3.2018558,3.2018558 0 0 1 10.98305,0.51000865 Z"
     id="path1820"
     inkscape:connector-curvature="0" />
  <path
     style="opacity:0.99;fill:#ffffff;fill-opacity:1;stroke:none;stroke-width:0.134866;stroke-linecap:butt;stroke-linejoin:miter;stroke-miterlimit:4;stroke-dasharray:none;stroke-dashoffset:3.3;stroke-opacity:1"
     d="M 4.2711858,2.2896697 A 1.7272799,1.7272799 0 0 1 2.5439064,4.0169496 1.7272799,1.7272799 0 0 1 4.2711858,5.7442296 1.7272799,1.7272799 0 0 1 5.9984672,4.0169496 1.7272799,1.7272799 0 0 1 4.2711858,2.2896697 Z"
     id="path1820-9"
     inkscape:connector-curvature="0" />
  <path
     style="opacity:0.99;fill:#ffffff;fill-opacity:1;stroke:none;stroke-width:0.196404;stroke-linecap:butt;stroke-linejoin:miter;stroke-miterlimit:4;stroke-dasharray:none;stroke-dashoffset:3.3;stroke-opacity:1"
     d="M 12.991525,7.0184831 A 2.5154156,2.5154156 0 0 1 10.47611,9.5338986 2.5154156,2.5154156 0 0 1 12.991525,12.049314 2.5154156,2.5154156 0 0 1 15.506942,9.5338986 2.5154156,2.5154156 0 0 1 12.991525,7.0184831 Z"
     id="path1820-9-7"
     inkscape:connector-curvature="0" />
</svg>
